<!-- Generator: Adobe Illustrator 19.2.1, SVG Export Plug-In  -->
<svg version="1.1"
	 xmlns="http://www.w3.org/2000/svg" xmlns:xlink="http://www.w3.org/1999/xlink" xmlns:a="http://ns.adobe.com/AdobeSVGViewerExtensions/3.0/"
	 x="0px" y="0px" width="273px" height="97.5px" viewBox="0 0 273 97.5" style="enable-background:new 0 0 273 97.5;"
	 xml:space="preserve">
<defs>
</defs>
<g>
	<path d="M15.7,90.5h1.8c1.2-2.8,2.4-5.6,3.5-8.3c1.2-2.8,2.3-5.5,3.5-8.3c1.2,2.8,2.3,5.6,3.5,8.3c1.2,2.8,2.3,5.5,3.5,8.3h1.9v1
		h-4.6v-1h1.7c-0.5-1-0.9-2.1-1.3-3.1c-0.4-1-0.9-2.1-1.3-3.1h-6.8c-0.4,1.1-0.9,2.1-1.3,3.1c-0.4,1-0.9,2.1-1.3,3.1h1.8v1h-4.6
		V90.5z M24.8,76.8l-0.2-0.7c0,0-0.1,0.2-0.1,0.4c0,0.1-0.1,0.2-0.1,0.3c-0.2,0.4-0.3,0.9-0.6,1.4c-0.2,0.5-0.4,1.1-0.7,1.6
		c-0.2,0.6-0.5,1.1-0.7,1.7c-0.2,0.6-0.5,1.2-0.7,1.7h5.9L24.8,76.8z"/>
	<path d="M35.2,90.5h1.8V74.4h-1.7v-1h2.7v17h1.9v1h-4.6V90.5z"/>
	<path d="M41.5,90.5h1.8V74.4h-1.7v-1h2.7v17h1.9v1h-4.6V90.5z"/>
	<path d="M55,90.5h1.5V75.6H55v-1h5c1.2,0,2.2,0.2,3.3,0.6c1,0.4,1.9,1,2.7,1.7c0.8,0.7,1.4,1.6,1.8,2.7s0.7,2.2,0.7,3.5
		c0,0.9-0.2,1.9-0.5,2.9c-0.3,1-0.9,1.9-1.6,2.7c-0.7,0.8-1.7,1.5-2.9,2c-1.2,0.5-2.6,0.8-4.3,0.8H55V90.5z M57.4,75.6v14.9h2.1
		c1.3,0,2.5-0.2,3.5-0.6c1-0.4,1.8-1,2.5-1.7c0.7-0.7,1.2-1.5,1.5-2.4c0.3-0.9,0.5-1.8,0.5-2.7c0-1.1-0.2-2.2-0.6-3.1
		c-0.4-0.9-0.9-1.7-1.6-2.4c-0.7-0.6-1.5-1.1-2.4-1.5C62,75.8,61,75.6,60,75.6H57.4z"/>
	<path d="M70.1,86.9c0-0.6,0.1-1.2,0.4-1.8c0.2-0.6,0.6-1.1,1-1.5c0.4-0.4,0.9-0.8,1.5-1c0.6-0.2,1.2-0.4,1.8-0.4
		c0.5,0,0.9,0.1,1.3,0.2s0.8,0.3,1.1,0.5s0.6,0.5,0.8,0.7c0.2,0.3,0.4,0.6,0.5,0.8c0-0.4,0-0.7,0-1.1c0-0.4,0-0.7,0.1-1.1h0.9v8h1.8
		v1h-2.7v-1c0-0.2,0-0.4,0-0.6c0-0.2,0-0.4,0-0.5c-0.1,0.3-0.3,0.5-0.5,0.8c-0.2,0.3-0.5,0.5-0.8,0.7c-0.3,0.2-0.7,0.4-1.1,0.5
		c-0.4,0.1-0.9,0.2-1.3,0.2c-0.7,0-1.3-0.1-1.8-0.4c-0.6-0.2-1.1-0.6-1.5-1c-0.4-0.4-0.8-0.9-1-1.5C70.3,88.2,70.1,87.6,70.1,86.9z
		 M71.1,87c0,0.5,0.1,1,0.3,1.4s0.5,0.8,0.8,1.2c0.3,0.3,0.7,0.6,1.2,0.8c0.5,0.2,0.9,0.3,1.5,0.3s1-0.1,1.5-0.3
		c0.4-0.2,0.8-0.5,1.2-0.8c0.3-0.3,0.6-0.7,0.8-1.2c0.2-0.4,0.3-0.9,0.3-1.4s-0.1-1-0.3-1.5c-0.2-0.5-0.5-0.9-0.8-1.2
		c-0.3-0.3-0.7-0.6-1.2-0.8c-0.4-0.2-0.9-0.3-1.5-0.3s-1,0.1-1.5,0.3s-0.8,0.5-1.2,0.8c-0.3,0.3-0.6,0.7-0.8,1.2S71.1,86.4,71.1,87z
		"/>
	<path d="M84.4,96.5h2c0.4-0.8,0.8-1.7,1.2-2.5c0.4-0.8,0.8-1.7,1.2-2.5c-0.7-1.4-1.4-2.7-2-4c-0.7-1.3-1.3-2.7-2-4h-1.8v-1h4.4v1
		H86c0.6,1.2,1.2,2.4,1.8,3.6c0.6,1.2,1.2,2.4,1.7,3.6c0.5-1.2,1.1-2.3,1.7-3.5c0.6-1.2,1.2-2.4,1.8-3.6h-1.4v-1h4.2v1H94
		c-1.1,2.2-2.2,4.4-3.3,6.5s-2.2,4.3-3.3,6.5h1.5v1h-4.6V96.5z"/>
	<path d="M97.9,90.7c0-0.2,0.1-0.4,0.2-0.6c0.2-0.2,0.3-0.2,0.6-0.2c0.2,0,0.4,0.1,0.5,0.2c0.2,0.2,0.2,0.3,0.2,0.6
		c0,0.2-0.1,0.4-0.2,0.6c-0.2,0.2-0.3,0.2-0.5,0.2c-0.2,0-0.4-0.1-0.6-0.2C98,91.1,97.9,90.9,97.9,90.7z"/>
	<path d="M108.6,90.5h1.7V75.6h-1.7v-1h11.7v3.7h-1v-2.7h-8v6.9h8.1v1h-8.1v7h8.4v-2.7h1v3.7h-12V90.5z"/>
	<path d="M122.3,82.5h4.4v1h-1.6c0.6,1.1,1.2,2.2,1.8,3.4c0.6,1.1,1.1,2.3,1.6,3.4c0.5-1.1,1-2.2,1.6-3.3s1.2-2.3,1.8-3.5h-1.4v-1
		h4.2v1H133c-0.7,1.5-1.5,2.9-2.2,4.3c-0.7,1.4-1.5,2.8-2.2,4.3c-0.8-1.4-1.5-2.9-2.2-4.3s-1.5-2.9-2.2-4.3h-1.8V82.5z"/>
	<path d="M145.2,85.6c-1.2,0.5-2.5,1-3.7,1.5c-1.2,0.5-2.5,1-3.7,1.5c0.3,0.6,0.7,1.1,1.3,1.5s1.3,0.6,2,0.6c0.5,0,1-0.1,1.4-0.3
		c0.4-0.2,0.8-0.4,1.1-0.8c0.1,0.1,0.2,0.3,0.3,0.4s0.2,0.2,0.3,0.4c-0.4,0.4-0.9,0.7-1.4,0.9s-1.1,0.3-1.7,0.3
		c-0.7,0-1.3-0.1-1.8-0.4c-0.6-0.2-1.1-0.6-1.5-1c-0.4-0.4-0.8-0.9-1-1.5s-0.4-1.2-0.4-1.8c0-0.6,0.1-1.2,0.4-1.8s0.6-1.1,1-1.5
		c0.4-0.4,0.9-0.7,1.5-1c0.6-0.2,1.2-0.4,1.8-0.4c0.5,0,0.9,0.1,1.4,0.3s0.8,0.4,1.2,0.7c0.4,0.3,0.7,0.6,0.9,1.1
		S145.1,85.1,145.2,85.6z M141.1,83.2c-0.6,0-1.1,0.1-1.6,0.4s-0.9,0.6-1.2,1s-0.6,0.9-0.7,1.4c-0.1,0.5-0.1,1.1,0,1.6
		c1.1-0.4,2.1-0.9,3.2-1.3c1.1-0.4,2.2-0.9,3.2-1.3c-0.3-0.5-0.7-1-1.2-1.3C142.3,83.4,141.7,83.2,141.1,83.2z"/>
	<path d="M147,90.5h1.9v-7.1h-1.7v-1h2.5l0,0.8c0,0.3,0,0.5,0,0.7c0,0.2,0,0.5,0,0.7c0.4-0.8,0.9-1.4,1.6-1.8s1.4-0.7,2.2-0.7
		l-0.1,1c-0.5,0-1,0.1-1.4,0.3c-0.4,0.2-0.8,0.4-1.2,0.7c-0.3,0.3-0.6,0.6-0.8,1c-0.2,0.4-0.3,0.8-0.3,1.3v4h1.8v1H147V90.5z"/>
	<path d="M156.6,96.5h2c0.4-0.8,0.8-1.7,1.2-2.5s0.8-1.7,1.2-2.5c-0.7-1.4-1.4-2.7-2-4c-0.7-1.3-1.3-2.7-2-4h-1.8v-1h4.4v1h-1.5
		c0.6,1.2,1.2,2.4,1.8,3.6c0.6,1.2,1.2,2.4,1.7,3.6c0.5-1.2,1.1-2.3,1.7-3.5c0.6-1.2,1.2-2.4,1.8-3.6h-1.4v-1h4.2v1h-1.8
		c-1.1,2.2-2.2,4.4-3.3,6.5c-1.1,2.2-2.2,4.3-3.3,6.5h1.5v1h-4.6V96.5z"/>
	<path d="M176.9,90.5h1.5V75.6h-1.5v-1h5c1.2,0,2.2,0.2,3.3,0.6c1,0.4,1.9,1,2.7,1.7c0.8,0.7,1.4,1.6,1.8,2.7c0.4,1,0.7,2.2,0.7,3.5
		c0,0.9-0.2,1.9-0.5,2.9c-0.3,1-0.9,1.9-1.6,2.7c-0.7,0.8-1.7,1.5-2.9,2c-1.2,0.5-2.6,0.8-4.3,0.8h-4.2V90.5z M179.3,75.6v14.9h2.1
		c1.3,0,2.5-0.2,3.5-0.6c1-0.4,1.8-1,2.5-1.7c0.7-0.7,1.2-1.5,1.5-2.4c0.3-0.9,0.5-1.8,0.5-2.7c0-1.1-0.2-2.2-0.6-3.1
		c-0.4-0.9-0.9-1.7-1.6-2.4c-0.7-0.6-1.5-1.1-2.4-1.5c-0.9-0.3-1.9-0.5-2.9-0.5H179.3z"/>
	<path d="M192,86.9c0-0.6,0.1-1.2,0.4-1.8c0.2-0.6,0.6-1.1,1-1.5c0.4-0.4,0.9-0.8,1.5-1c0.6-0.2,1.2-0.4,1.8-0.4
		c0.5,0,0.9,0.1,1.3,0.2c0.4,0.1,0.8,0.3,1.1,0.5s0.6,0.5,0.8,0.7c0.2,0.3,0.4,0.6,0.5,0.8c0-0.4,0-0.7,0-1.1s0-0.7,0.1-1.1h0.9v8
		h1.8v1h-2.7v-1c0-0.2,0-0.4,0-0.6c0-0.2,0-0.4,0-0.5c-0.1,0.3-0.3,0.5-0.5,0.8c-0.2,0.3-0.5,0.5-0.8,0.7c-0.3,0.2-0.7,0.4-1.1,0.5
		c-0.4,0.1-0.9,0.2-1.3,0.2c-0.7,0-1.3-0.1-1.8-0.4c-0.6-0.2-1.1-0.6-1.5-1c-0.4-0.4-0.8-0.9-1-1.5C192.2,88.2,192,87.6,192,86.9z
		 M193,87c0,0.5,0.1,1,0.3,1.4c0.2,0.4,0.5,0.8,0.8,1.2c0.3,0.3,0.7,0.6,1.2,0.8c0.5,0.2,0.9,0.3,1.5,0.3c0.5,0,1-0.1,1.5-0.3
		c0.4-0.2,0.8-0.5,1.2-0.8c0.3-0.3,0.6-0.7,0.8-1.2c0.2-0.4,0.3-0.9,0.3-1.4s-0.1-1-0.3-1.5c-0.2-0.5-0.5-0.9-0.8-1.2
		c-0.3-0.3-0.7-0.6-1.2-0.8c-0.4-0.2-0.9-0.3-1.5-0.3c-0.5,0-1,0.1-1.5,0.3s-0.8,0.5-1.2,0.8c-0.3,0.3-0.6,0.7-0.8,1.2
		C193.1,86,193,86.4,193,87z"/>
	<path d="M206.3,96.5h2c0.4-0.8,0.8-1.7,1.2-2.5s0.8-1.7,1.2-2.5c-0.7-1.4-1.4-2.7-2-4c-0.7-1.3-1.3-2.7-2-4h-1.8v-1h4.4v1h-1.5
		c0.6,1.2,1.2,2.4,1.8,3.6c0.6,1.2,1.2,2.4,1.7,3.6c0.5-1.2,1.1-2.3,1.7-3.5c0.6-1.2,1.2-2.4,1.8-3.6h-1.4v-1h4.2v1h-1.8
		c-1.1,2.2-2.2,4.4-3.3,6.5c-1.1,2.2-2.2,4.3-3.3,6.5h1.5v1h-4.6V96.5z"/>
	<path d="M219.8,90.7c0-0.2,0.1-0.4,0.2-0.6c0.2-0.2,0.3-0.2,0.6-0.2c0.2,0,0.4,0.1,0.5,0.2c0.2,0.2,0.2,0.3,0.2,0.6
		c0,0.2-0.1,0.4-0.2,0.6c-0.2,0.2-0.3,0.2-0.5,0.2c-0.2,0-0.4-0.1-0.6-0.2C219.9,91.1,219.8,90.9,219.8,90.7z"/>
</g>
<g>
	<path d="M20.3,38.4c-0.3,0.7-0.6,1-1,1c-0.3-0.1-0.6-0.3-0.9-0.6c-0.3-0.3-0.5-0.7-0.7-1.2c-0.2-0.5-0.2-0.8-0.1-1
		c0.5-2.5,0.8-4.4,1-5.6c0.1-1.3-0.3-1.9-1.3-1.9c-0.5,0-1.1,0.4-1.7,1.1c-0.6,0.7-1.3,1.6-2,2.5c-0.7,1-1.3,1.9-1.8,2.8
		c-0.5,0.9-0.9,1.5-1.1,1.7c-0.1,0.2-0.3,0.4-0.4,0.6c-0.2,0.2-0.3,0.4-0.4,0.7c-0.3,0.7-0.7,1.4-1,2.2c-0.4,0.7-0.7,1.5-1,2.2
		c-0.2,0.7-0.4,1.3-0.5,1.8c-0.1,0.3-0.2,0.7-0.3,1.2C7,46.1,7,46.3,7,46.4c-0.1,1.8,0,3.5,0.5,4.8c0.4,1.4,1.1,2.5,1.8,3.4
		c0.8,0.9,1.6,1.6,2.6,2.1c1,0.5,2,0.8,2.9,0.8c1,0.1,2.3-0.1,3.7-0.5c1.5-0.4,2.9-1.1,4.4-2.2c1.4-1.1,2.8-2.5,4-4.3
		c1.2-1.8,2.1-4,2.7-6.7c0.1-0.6,0.4-1.3,0.9-2.3c0.4-1,0.9-1.9,1.4-2.7c0.5-0.9,1-1.5,1.5-2c0.5-0.5,0.8-0.6,1-0.2
		c0.2,0.3,0.2,1.2,0,2.5c-0.2,1.4-0.8,3.5-1.6,6.5c-0.6,1.9-1.5,3.8-2.7,5.7c-1.2,2-2.7,3.8-4.5,5.4c-1.8,1.6-3.7,2.9-6,3.9
		c-2.2,1-4.6,1.5-7.1,1.5c-0.3,0-0.8-0.1-1.5-0.3c-0.8-0.2-1.6-0.4-2.4-0.7s-1.7-0.6-2.4-0.9c-0.7-0.3-1.2-0.6-1.3-0.8
		c-0.3-0.1-0.6-0.4-1-0.9c-0.4-0.5-0.8-1-1.3-1.6c-0.4-0.6-0.9-1.3-1.2-2c-0.4-0.7-0.6-1.4-0.8-2.1c-0.5-2.4-0.6-4.7-0.3-7
		c0.3-2.2,0.8-4.3,1.6-6.3c0.8-1.9,1.7-3.7,2.8-5.4s2.1-3,3-4.1c1-1.1,2.1-2.3,3.4-3.6c0.8-0.4,1.6-0.7,2.5-0.7
		c0.9,0,1.8,0.1,2.6,0.3c0.8,0.2,1.6,0.5,2.2,0.8c0.7,0.3,1.2,0.6,1.5,0.9c0.1,0.1,0.1,0.1,0.1,0.2c0,0.1,0.1,0.1,0.1,0.2
		c1.1,1.5,1.6,3.2,1.5,5C21.5,35,21.1,36.7,20.3,38.4z"/>
	<path d="M66.4,43.9c0.1-0.6,0.4-1.3,0.9-2.3c0.4-1,0.9-1.9,1.4-2.7c0.5-0.9,1-1.5,1.4-2c0.4-0.5,0.8-0.6,1-0.2
		c0.2,0.3,0.2,1.2,0,2.5c-0.2,1.4-0.8,3.5-1.6,6.5c-0.6,1.9-1.4,3.7-2.4,5.6c-1.1,1.9-2.3,3.6-3.9,5c-1.5,1.5-3.3,2.7-5.4,3.6
		c-2,0.9-4.3,1.4-6.8,1.4h-0.1c-0.8,0.1-1.8-0.4-3-1.7c-0.4-0.4-0.8-1.1-1.1-2.1c-0.3-1-0.4-2.1-0.6-3.4c-0.1-0.3-0.1-0.6-0.1-0.9
		c0-0.3,0-0.6,0-0.9c-0.1-1.2-0.1-2.5,0-4c-0.1,0.3-0.2,0.5-0.3,0.7c-0.1,0.2-0.2,0.4-0.3,0.6c-0.5,0.8-1,1.5-1.6,2.3
		c-0.5,0.8-1.2,1.5-2.1,2.2c-0.3,0.3-0.7,0.6-1.1,0.9c-0.4,0.3-0.8,0.5-1.2,0.7c-1.7,0.7-3.3,0.8-4.9,0.2c-1-0.4-1.7-0.9-2.2-1.6
		c-0.5-0.7-0.9-1.4-1.2-2.2c-0.6-1.7-1-3.3-1-5.1c0-1.7,0.1-3.5,0.4-5.3c0.2-1,0.4-1.9,0.7-2.9c0.3-1,0.6-1.9,1-2.8
		c0.5-1.1,1.1-2.3,1.7-3.3c0.6-1.1,1.4-2.1,2.3-3.1c0.5-0.6,1.1-1.2,1.7-1.7c0.6-0.5,1.4-1,2.3-1.3c1.7-0.8,3.6-1.1,5.6-1
		c1.4,0.2,2.6,0.6,3.7,1.1c0.4-1.1,0.8-1.7,1.3-1.8c0.8-0.2,1.7-0.4,2.5-0.6c0.9-0.2,1.6-0.4,2.3-0.4c0.7-0.1,1.3,0,1.8,0.1
		c0.5,0.2,0.8,0.5,1,0.9c0.3,0.8,0.5,1.5,0.7,2.2c0.1,0.6,0.2,1.4,0.1,2.2c-0.1,0.8-0.3,1.5-0.8,2.2c-0.3,0.4-0.6,1.3-1.1,2.5
		c-0.5,1.2-1,2.7-1.5,4.4c-0.5,1.7-1.1,3.4-1.6,5.4c-0.5,1.9-1,3.8-1.3,5.5c-0.4,1.8-0.7,3.4-0.8,4.9c-0.2,1.5-0.1,2.7,0.1,3.5
		c1.1-0.1,2.4-0.3,3.8-0.9c1.4-0.5,2.7-1.3,4-2.4c1.3-1.1,2.5-2.5,3.6-4.2C65,48.4,65.8,46.3,66.4,43.9z M46.3,39.4
		c0.1-0.1,0.2-0.3,0.3-0.4c0.1-0.2,0.2-0.3,0.3-0.4c0.3-1.8,0.6-3.6,1-5.3c0.3-1.7,0.7-3.2,1.1-4.4c-0.1-0.1-0.1-0.1-0.1-0.1
		c0,0-0.1,0-0.1-0.1c-0.4-0.1-0.8-0.2-1.2-0.3c-0.4-0.1-0.8-0.2-1.3-0.3c-0.6-0.1-1.1-0.2-1.7-0.1c-0.6,0.1-1.1,0.2-1.7,0.4
		c-0.9,0.3-1.6,0.7-2.1,1.2c-0.5,0.5-0.9,1-1.2,1.7c0,0.1,0,0.1,0,0.1c0,0,0,0.1,0,0.1c-0.1,0.3-0.3,0.6-0.5,0.9
		c-0.2,0.3-0.4,0.5-0.5,0.9c-0.3,0.7-0.5,1.4-0.7,2c-0.2,0.6-0.4,1.3-0.6,2c-0.1,0.4-0.2,0.8-0.2,1.1c0,0.4-0.1,0.8-0.1,1.1
		c-0.1,0.5-0.2,1-0.2,1.5c0,0.5-0.1,1-0.1,1.5c-0.1,1.2-0.1,2.4,0,3.5c0,1,0,2,0.1,3c0.1,1,0.2,2,0.3,2.9c0,0.3,0.1,0.7,0.4,1.1
		c0.1,0.4,0.4,0.5,0.8,0.5c0.3-0.1,0.6-0.1,0.9-0.1c0.3,0,0.4-0.2,0.6-0.5c0.1-0.1,0.1-0.2,0.2-0.2c0.1,0,0.2-0.1,0.2-0.2
		c0.3-0.3,0.5-0.6,0.7-1c0.2-0.3,0.4-0.6,0.5-1l2-4.3L46.3,39.4z"/>
	<path d="M90.1,19.7c1.2-0.2,2.5-0.5,4-0.8c1.4-0.3,2.7-0.7,3.9-0.9c1.1-0.3,2.1-0.4,2.8-0.4c0.7,0,0.9,0.2,0.7,0.6
		c-0.3,0.4-0.8,0.9-1.8,1.3c-0.9,0.4-2,0.8-3.1,1.1c-1.1,0.4-2.3,0.6-3.4,0.9c-1.1,0.2-2.1,0.3-2.8,0.3c-0.8,0-1.9-0.1-3.3-0.4
		c-1.4-0.3-2.9-0.7-4.6-1.2c-0.8,1.6-1.5,3.3-2.1,5.1c-0.6,1.8-1.2,3.7-1.7,5.6c-0.3,1.5-0.8,2.8-1.6,4.1c-0.7,1.2-1.2,2.5-1.4,3.7
		c-0.1,0.3-0.2,0.5-0.2,0.9c0,0.3-0.1,0.6-0.2,1c-0.3,1.3-0.6,2.7-0.9,4.3c-0.3,1.6-0.5,3.1-0.8,4.6c-0.5,3.4-0.8,6.3-1,8.6
		c-0.1,2.3-0.1,4.1,0,5.5c0.2,1.4,0.5,2.3,1,2.9c0.5,0.5,1.1,0.8,1.9,0.8c1.8,0,3.4-0.8,4.7-2.4c1.4-1.6,2.6-3.6,3.7-6
		c1.1-2.4,2-5,2.9-7.8c0.8-2.8,1.6-5.5,2.3-7.9c0.2-0.6,0.5-1.3,1-2.3c0.4-1,0.9-1.9,1.4-2.7c0.5-0.9,1-1.5,1.4-2
		c0.4-0.5,0.7-0.6,0.9-0.2c0.2,0.3,0.1,1.2-0.1,2.5c-0.2,1.4-0.8,3.5-1.6,6.5c-0.3,0.9-0.6,2.1-1,3.7c-0.4,1.6-1,3.3-1.6,5.2
		s-1.5,3.8-2.4,5.8c-0.9,1.9-2,3.7-3.3,5.3c-1.3,1.6-2.7,2.9-4.3,3.9c-1.6,1-3.4,1.5-5.5,1.5c-1.1,0-2.4-0.6-3.7-1.8
		c-1.3-1.2-2.4-2.8-3.4-4.7c-1-1.9-1.6-4.1-2-6.5c-0.3-2.4-0.2-4.8,0.5-7.2c0.1-0.3,0.2-0.6,0.3-0.9c0.1-0.3,0.2-0.6,0.3-0.9
		c0.1-0.5,0.2-0.9,0.2-1.3c0-0.4,0.1-0.6,0.2-0.8c0.7-4.2,1.8-8.8,3.3-13.7c1.5-4.9,3.5-9.8,6-14.7c-0.3-0.1-0.5-0.3-0.7-0.4
		c-0.2-0.1-0.5-0.3-0.7-0.4c-1.4-0.8-2.8-1.1-4.1-0.9c-1.3,0.2-2.6,0.4-3.7,0.9c-1.1,0.4-2.1,0.8-2.8,1.1c-0.8,0.3-1.2,0.3-1.4-0.1
		c-0.4-0.9,0-1.7,1.1-2.3c1.1-0.6,2.5-1.1,4-1.3c0.4-0.2,1-0.3,1.7-0.4c0.5-0.1,1.1-0.1,1.9,0c0.8,0,1.6,0.2,2.5,0.4
		c0.4,0.1,0.9,0.3,1.5,0.5c0.5,0.2,1.2,0.5,1.9,0.8c2.2-4,4.1-7.1,5.9-9.3c1.8-2.2,3.3-3.8,4.7-4.7C89,0.4,90.1,0,91,0
		c0.9,0,1.6,0.3,2.1,0.7c0.1,0.1,0.3,0.2,0.5,0.3s0.3,0.2,0.5,0.3c0.2,0.2,0,0.7-0.7,1.6c-0.6,0.9-1.5,2-2.6,3.4
		c-1.1,1.4-2.3,3.2-3.6,5.2c-1.3,2-2.6,4.3-3.8,6.7c1.2,0.5,2.4,0.9,3.6,1.1C88.1,19.7,89.2,19.8,90.1,19.7z"/>
	<path d="M127.3,43.9c0.2-0.6,0.5-1.3,1-2.3c0.4-1,0.9-1.8,1.4-2.7c0.5-0.8,1-1.5,1.4-2c0.4-0.5,0.7-0.6,0.9-0.3
		c0.2,0.3,0.1,1.2-0.1,2.5c-0.2,1.4-0.8,3.5-1.6,6.5c-0.4,1.3-1.1,3-2.1,5.3c-1,2.2-2.3,4.4-4,6.6c-1.7,2.1-3.6,4-5.9,5.5
		c-2.3,1.6-5,2.3-8,2.3c-0.9,0-1.7-0.6-2.4-1.7c-0.7-1.1-1.1-3.1-1.2-5.9c-0.1-0.3-0.1-0.7,0-1.1c0-0.4,0.1-0.8,0.1-1.1
		c-0.1-0.1-0.1-0.3,0-0.5c0-0.2,0-0.4,0-0.6l-4.7,7.7c-1.2,1.1-2.6,1.9-4,2.5c-1.3,0.5-2.5,0.7-3.5,0.7c-0.3,0.2-1,0-2.1-0.5
		c-0.9-0.4-1.8-1.1-2.6-2.1c-0.9-0.9-1.6-2.1-2.1-3.5c-0.5-1.4-0.8-3.1-0.9-5c-0.1-1.9,0.3-4,1-6.3c0.7-2.3,1.5-4.7,2.3-7.2
		c0.9-2.5,1.7-4.9,2.4-7c0.9-2.5,1.8-4.9,2.8-7.4c0.6,0.1,1.3,0.2,1.9,0.3c0.5,0.1,1,0.3,1.5,0.4c0.5,0.2,0.8,0.4,1.1,0.6
		c0.6,0.6,0.7,1.9,0.3,3.9c-0.4,2-1,4.3-1.9,7c-0.9,2.6-1.8,5.5-2.9,8.4c-1.1,3-2,5.7-2.7,8.3c-0.5,1.7-0.7,3.1-0.6,4.2
		c0.1,1.1,0.4,1.9,0.8,2.5c0.4,0.6,1,1.1,1.8,1.4c0.3-0.1,0.6-0.1,0.9-0.1s0.6-0.1,0.9-0.2c1.3-0.4,2.3-1.1,3-2.1
		c0.4-0.5,0.8-1,1.3-1.6c0.5-0.5,0.9-1.1,1.2-1.7c0.4-0.7,0.8-1.4,1.2-2.2c0.3-0.7,0.7-1.4,1.1-2.2c0-0.1,0.2-0.5,0.7-1.4
		c0.5-0.9,1-1.9,1.5-3c0.5-1.1,1-2.1,1.5-3c0.4-0.9,0.7-1.4,0.7-1.4c0.3-1.6,0.7-3.2,1.1-4.7c0.4-1.6,0.7-3,1.1-4.3
		c0.3-1.5,0.6-2.8,1-4.1c0.3-0.4,0.4-0.6,0.6-0.8c0.6-0.8,1.3-1.5,2.1-2.1c0.8-0.6,1.6-1.1,2.5-1.6c0.4-0.2,0.9-0.4,1.3-0.5
		c0.4-0.2,0.8-0.3,1.3-0.4c0.7-0.3,1.1-0.1,1.1,0.8c-0.1,0.5-0.2,1-0.2,1.6c0,0.5-0.1,1.1-0.2,1.6c-0.2,1-0.4,1.9-0.7,2.9
		c-0.3,1-0.5,1.9-0.8,2.9c-0.1,0.5-0.3,1-0.5,1.5c-0.2,0.5-0.4,1-0.6,1.5c-0.1,0.3-0.7,1.9-1.7,4.8c-1,2.9-2.1,7.2-3.4,13.1
		c-0.5,2.4-0.6,4-0.3,5c0.3,1,0.9,1.4,1.8,1.2c0.9-0.2,1.9-0.8,3.2-1.9c1.2-1.1,2.5-2.5,3.7-4.3s2.4-3.7,3.6-5.9
		C125.7,48.5,126.6,46.2,127.3,43.9z"/>
	<path d="M159.7,46.2c0.1-0.6,0.4-1.3,0.9-2.3c0.4-1,0.9-1.9,1.4-2.7c0.5-0.9,1-1.5,1.4-2c0.4-0.5,0.8-0.6,1-0.2
		c0.2,0.3,0.2,1.2,0,2.5c-0.2,1.4-0.8,3.5-1.6,6.5c-0.6,1.9-1.5,3.9-2.8,6c-1.3,2.2-2.9,4.2-4.8,6c-1.9,1.9-4,3.4-6.3,4.6
		c-2.3,1.2-4.7,1.9-7.2,1.9c-0.6,0.1-1.1,0.1-1.5-0.1c-0.8-0.1-1.5-0.4-2.3-1c-0.8-0.5-1.4-1.4-1.7-2.7c-0.4-1.3-0.4-2.9,0-4.8
		c0.3-1.9,0.8-3.8,1.5-5.8c0.6-2,1.4-4,2.2-5.9c0.8-1.9,1.5-3.7,2.1-5.1c0.7-2,1.5-4,2.4-6c0.9-2,1.9-3.9,3-5.6
		c-1.3,0.4-2.9,0.7-4.8,0.9c-1.9,0.1-4.1-0.3-6.5-1.1c-0.5-0.1-0.9-0.3-1.1-0.4c-0.2,0.8-0.4,1.9-0.8,3.2c-0.3,1.3-0.7,2.6-1,4
		c-0.4,1.4-0.7,2.8-1.1,4.2c-0.4,1.4-0.7,2.6-1.1,3.6c-0.4,1.3-0.9,2.1-1.3,2.4c-0.4,0.4-0.8,0.4-1.1,0c-0.3-0.3-0.5-1-0.5-1.9
		c-0.1-0.9,0.1-2,0.4-3.1c0.7-2.5,1.4-5,2.2-7.4c0.8-2.4,1.5-4.4,2.2-6.2c-1.8-1.3-2.8-2.9-3.2-4.7c-0.3-1.8-0.2-3.4,0.5-4.9
		c0.6-1.5,1.6-2.5,2.9-3.3c1.3-0.7,2.6-0.6,4.1,0.4c0.4,0.3,0.6,0.8,0.6,1.6c0,0.8,0,1.7-0.2,2.8c-0.2,1.1-0.4,2.2-0.8,3.3
		c-0.3,1.1-0.6,2.2-0.9,3.1c1.5,0.5,3.2,0.7,5.2,0.4c2-0.2,4-0.9,6.1-2c1.7-1,3.3-1.5,4.7-1.5c1.4-0.1,2.6,0.1,3.5,0.6
		c1,0.4,1.7,1.1,2.1,2c0.4,0.9,0.6,1.7,0.4,2.6c0.1,0.4-0.1,0.8-0.4,1.3c-0.5,0.8-1,1.5-1.3,1.9c-0.8,1.1-1.7,2.5-2.8,4.3
		c-1.1,1.8-2.3,3.7-3.5,5.7c-1.2,2.1-2.5,4.2-3.7,6.4c-1.2,2.2-2.3,4.3-3.2,6.3c-0.9,2-1.6,3.8-2.1,5.4c-0.5,1.6-0.6,2.8-0.3,3.6
		c1,1.3,2.5,1.6,4.4,1.1c1.9-0.6,3.9-1.7,5.9-3.4s3.9-3.8,5.6-6.4C157.9,51.4,159.1,48.8,159.7,46.2z M133.4,19.5
		c-1,1.9-1,3.5,0.1,4.8c0.3-1,0.5-1.9,0.7-3c0.2-1,0.4-1.9,0.4-2.5c0.1-0.7,0-1-0.1-1C134.4,17.7,134,18.3,133.4,19.5z"/>
	<path d="M183.8,40.4c-0.3,1.3-0.6,2.7-0.8,4.3c-0.2,1.6-0.5,3.1-0.8,4.6c-0.5,3.4-0.8,6.3-1,8.6c-0.1,2.3-0.1,4.1,0,5.5
		c0.2,1.4,0.5,2.3,1,2.9c0.5,0.5,1.1,0.8,1.9,0.8c1.8,0,3.3-0.8,4.7-2.4c1.3-1.6,2.5-3.6,3.6-6c1.1-2.4,2-5,2.9-7.8
		c0.8-2.8,1.6-5.5,2.3-7.9c0.2-0.6,0.5-1.3,1-2.3c0.4-1,0.9-1.9,1.4-2.7c0.5-0.9,1-1.5,1.4-2c0.4-0.5,0.8-0.6,0.9-0.2
		c0.2,0.3,0.1,1.2-0.1,2.5c-0.2,1.4-0.8,3.5-1.6,6.5c-0.3,0.9-0.6,2.1-1,3.7c-0.4,1.6-1,3.3-1.6,5.2c-0.7,1.9-1.5,3.8-2.4,5.8
		c-0.9,1.9-2,3.7-3.3,5.3c-1.3,1.6-2.7,2.9-4.3,3.9c-1.6,1-3.4,1.5-5.5,1.5c-1,0-2-0.4-3-1.2c-1.1-0.8-2-1.9-2.9-3.2
		s-1.6-2.9-2.2-4.7c-0.6-1.8-0.9-3.6-1-5.5c-0.5,0.8-1,1.5-1.6,2.2c-0.5,0.7-1.2,1.4-2,2.1c-0.3,0.3-0.7,0.6-1.1,0.9
		c-0.4,0.3-0.8,0.5-1.2,0.7c-1.5,0.7-3.2,0.8-4.9,0.2c-1-0.4-1.7-0.9-2.2-1.5c-0.5-0.6-0.9-1.3-1.2-2.1c-0.6-1.7-1-3.4-1-5.1
		c0-1.8,0.1-3.5,0.4-5.3c0.2-1,0.4-1.9,0.7-2.8c0.3-0.9,0.6-1.9,1-2.8c0.5-1.1,1.1-2.2,1.7-3.3c0.6-1.1,1.4-2.1,2.3-3.2
		c0.5-0.6,1.1-1.1,1.7-1.7c0.6-0.5,1.4-1,2.3-1.4c1.8-0.8,3.7-1.1,5.6-0.9c1.4,0.1,2.6,0.5,3.7,1.1c0.4-0.9,0.8-1.5,1.1-1.8
		c0.8-2.3,1.6-4.6,2.6-6.9c1-2.3,2-4.6,3.3-6.9c2.2-4.3,4.3-7.7,6.2-10.1s3.5-4.1,5-5.2c1.4-1.1,2.6-1.6,3.6-1.6s1.7,0.2,2.1,0.7
		c0.4,0.2,0.7,0.4,1,0.7c1,1,1.2,2.2,0.7,3.4c-0.2,0.6-0.4,1.2-0.7,1.8c-0.3,0.6-0.5,1.1-0.8,1.7c-0.5,1.1-1,2.3-1.4,3.4
		c-0.4,1.1-0.9,2.3-1.5,3.3c-0.6,1.3-1.6,2.7-2.8,4.4c-1.2,1.6-2.4,3.2-3.7,4.8c-1.2,1.6-2.4,3-3.4,4.2c-1,1.2-1.7,2-1.9,2.4
		c-0.9,1.2-1.5,2.5-2,3.9c-0.4,1.4-0.8,2.7-1,3.9c-0.1,0.3-0.1,0.5-0.2,0.9C184,39.8,183.9,40.1,183.8,40.4z M169.2,56.2
		c0.3-0.7,0.7-1.4,1-2.2c0.3-0.7,0.7-1.5,1-2.2c0.5-1.1,1-2.2,1.6-3.3c0.5-1.1,1.1-2.2,1.6-3.3c0.2-0.4,0.4-0.7,0.7-1
		c0.3-1.8,0.6-3.6,1-5.3c0.3-1.7,0.7-3.2,1.1-4.4c-0.1-0.1-0.1-0.1-0.1-0.1c0,0-0.1,0-0.1-0.1c-0.4-0.1-0.8-0.2-1.2-0.3
		s-0.8-0.2-1.3-0.3c-0.6-0.1-1.1-0.1-1.7,0c-0.6,0.1-1.1,0.2-1.7,0.3c-0.9,0.3-1.6,0.7-2.1,1.2c-0.5,0.5-0.9,1.1-1.2,1.8
		c0,0.1,0,0.1,0,0.1c0,0,0,0,0,0.1c-0.1,0.3-0.3,0.6-0.5,0.9c-0.2,0.3-0.4,0.5-0.5,0.9c-0.3,0.7-0.5,1.4-0.7,2
		c-0.2,0.6-0.4,1.3-0.6,2c-0.1,0.4-0.2,0.8-0.2,1.1c0,0.4-0.1,0.8-0.1,1.2c-0.1,0.5-0.2,1-0.2,1.5c0,0.5-0.1,1-0.1,1.5
		c-0.1,1.1-0.1,2.3,0,3.4c0,1,0,2,0.1,3c0.1,1,0.2,2,0.3,3c0,0.2,0,0.4,0.1,0.5c0.1,0.2,0.2,0.3,0.3,0.5c0.2,0.3,0.4,0.4,0.8,0.4
		c0.3,0,0.6,0,0.9,0c0.3,0,0.4-0.2,0.6-0.5c0.1-0.1,0.1-0.2,0.2-0.3s0.2-0.2,0.2-0.3C168.6,57.4,169,56.8,169.2,56.2z M188.8,24.3
		c0.6-0.3,1.4-1,2.3-2c0.9-1,1.8-2.2,2.7-3.6c0.9-1.4,1.8-2.8,2.6-4.4c0.8-1.5,1.6-2.9,2.2-4.3c0.6-1.3,1.1-2.4,1.5-3.3
		c0.3-0.9,0.5-1.4,0.4-1.6c-0.3-0.4-0.7-0.5-1.3-0.4c-0.3,0.1-0.6,0.2-1,0.4L188.8,24.3z"/>
	<path d="M234.6,43.9c0.1-0.6,0.4-1.3,0.9-2.3c0.4-1,0.9-1.9,1.4-2.7c0.5-0.9,1-1.5,1.4-2c0.4-0.5,0.8-0.6,1-0.2
		c0.2,0.3,0.2,1.2,0,2.5c-0.2,1.4-0.8,3.5-1.6,6.5c-0.6,1.9-1.4,3.7-2.4,5.6c-1.1,1.9-2.3,3.6-3.9,5c-1.5,1.5-3.3,2.7-5.4,3.6
		c-2,0.9-4.3,1.4-6.8,1.4h-0.1c-0.8,0.1-1.8-0.4-3-1.7c-0.4-0.4-0.8-1.1-1.1-2.1c-0.3-1-0.4-2.1-0.6-3.4c-0.1-0.3-0.1-0.6-0.1-0.9
		c0-0.3,0-0.6,0-0.9c-0.1-1.2-0.1-2.5,0-4c-0.1,0.3-0.2,0.5-0.3,0.7c-0.1,0.2-0.2,0.4-0.3,0.6c-0.5,0.8-1,1.5-1.6,2.3
		c-0.5,0.8-1.2,1.5-2.1,2.2c-0.3,0.3-0.7,0.6-1.1,0.9c-0.4,0.3-0.8,0.5-1.2,0.7c-1.7,0.7-3.3,0.8-4.9,0.2c-1-0.4-1.7-0.9-2.2-1.6
		c-0.5-0.7-0.9-1.4-1.2-2.2c-0.6-1.7-1-3.3-1-5.1c0-1.7,0.1-3.5,0.4-5.3c0.2-1,0.4-1.9,0.7-2.9c0.3-1,0.6-1.9,1-2.8
		c0.5-1.1,1.1-2.3,1.7-3.3c0.6-1.1,1.4-2.1,2.3-3.1c0.5-0.6,1.1-1.2,1.7-1.7c0.6-0.5,1.4-1,2.3-1.3c1.7-0.8,3.6-1.1,5.6-1
		c1.4,0.2,2.6,0.6,3.7,1.1c0.4-1.1,0.8-1.7,1.3-1.8c0.8-0.2,1.7-0.4,2.5-0.6c0.9-0.2,1.6-0.4,2.3-0.4c0.7-0.1,1.3,0,1.8,0.1
		c0.5,0.2,0.8,0.5,1,0.9c0.3,0.8,0.5,1.5,0.7,2.2c0.1,0.6,0.2,1.4,0.1,2.2c-0.1,0.8-0.3,1.5-0.8,2.2c-0.3,0.4-0.6,1.3-1.1,2.5
		s-1,2.7-1.5,4.4c-0.5,1.7-1.1,3.4-1.6,5.4c-0.5,1.9-1,3.8-1.3,5.5c-0.4,1.8-0.7,3.4-0.8,4.9c-0.2,1.5-0.1,2.7,0.1,3.5
		c1.1-0.1,2.4-0.3,3.8-0.9c1.4-0.5,2.7-1.3,4-2.4c1.3-1.1,2.5-2.5,3.6-4.2C233.2,48.4,234,46.3,234.6,43.9z M214.5,39.4
		c0.1-0.1,0.2-0.3,0.3-0.4c0.1-0.2,0.2-0.3,0.3-0.4c0.3-1.8,0.6-3.6,1-5.3c0.3-1.7,0.7-3.2,1.1-4.4c-0.1-0.1-0.1-0.1-0.1-0.1
		c0,0-0.1,0-0.1-0.1c-0.4-0.1-0.8-0.2-1.2-0.3c-0.4-0.1-0.8-0.2-1.3-0.3c-0.6-0.1-1.1-0.2-1.7-0.1c-0.6,0.1-1.1,0.2-1.7,0.4
		c-0.9,0.3-1.6,0.7-2.1,1.2c-0.5,0.5-0.9,1-1.2,1.7c0,0.1,0,0.1,0,0.1c0,0,0,0.1,0,0.1c-0.1,0.3-0.3,0.6-0.5,0.9
		c-0.2,0.3-0.4,0.5-0.5,0.9c-0.3,0.7-0.5,1.4-0.7,2c-0.2,0.6-0.4,1.3-0.6,2c-0.1,0.4-0.2,0.8-0.2,1.1c0,0.4-0.1,0.8-0.1,1.1
		c-0.1,0.5-0.2,1-0.2,1.5c0,0.5-0.1,1-0.1,1.5c-0.1,1.2-0.1,2.4,0,3.5c0,1,0,2,0.1,3c0.1,1,0.2,2,0.3,2.9c0,0.3,0.1,0.7,0.4,1.1
		c0.1,0.4,0.4,0.5,0.8,0.5c0.3-0.1,0.6-0.1,0.9-0.1c0.3,0,0.4-0.2,0.6-0.5c0.1-0.1,0.1-0.2,0.2-0.2c0.1,0,0.2-0.1,0.2-0.2
		c0.3-0.3,0.5-0.6,0.7-1c0.2-0.3,0.4-0.6,0.5-1l2-4.3L214.5,39.4z"/>
	<path d="M268.2,46.2c0.1-0.6,0.4-1.3,0.9-2.3c0.4-1,0.9-1.9,1.4-2.7c0.5-0.9,1-1.5,1.4-2c0.4-0.5,0.8-0.6,1-0.2
		c0.2,0.3,0.2,1.2,0,2.5c-0.2,1.4-0.8,3.5-1.6,6.5c-0.4,1.3-0.9,2.8-1.6,4.4c-0.7,1.6-1.5,3.3-2.4,4.9c-0.9,1.6-2,3.2-3.2,4.7
		c-1.2,1.5-2.5,2.8-3.9,3.9l-0.3,1.7c-0.1,0.5-0.3,1-0.4,1.4c-0.1,0.4-0.3,0.9-0.4,1.4c-1.1,3.6-2.6,7-4.6,10.1
		c-0.8,1.3-1.7,2.5-2.7,3.6c-1,1.1-2.1,2.2-3.4,3.1c-2.6,1.8-5.5,3-8.7,3.3c-1.1,0.1-2.1,0.2-3.2,0.1c-1,0-2-0.3-3.1-0.7
		c-1.6-0.7-2.5-1.8-2.7-3.3c-0.2-1.2,0-2.5,0.5-3.7c0.4-0.9,0.9-1.7,1.4-2.3c0.6-0.7,1.2-1.4,1.9-2.1c1.1-1.1,2.3-2.1,3.5-3.2
		c1.2-1,2.5-2,3.7-3c1.4-1.1,2.8-2.1,4.3-3c1.5-0.9,3-1.8,4.5-2.6c0.2-0.1,0.4-0.2,0.6-0.3c0.2-0.1,0.5-0.2,0.7-0.3l0.1-0.2
		c0.2-0.8,0.4-1.8,0.7-3.1c0.3-1.3,0.5-2.6,0.8-4c0.3-1.3,0.6-2.6,0.8-3.8c0.3-1.2,0.4-2.2,0.6-2.9c-0.6,1.5-1.2,2.9-1.8,4.2
		c-0.5,1.1-1,2.2-1.6,3.3c-0.5,1.1-1,2-1.4,2.5c-0.4,0.6-1,1.1-1.6,1.4c-0.6,0.4-1.3,0.7-2.1,1.1c-1.3,0.5-2.5,0.7-3.5,0.7
		c-0.2,0.2-0.9,0-2-0.5c-1-0.4-1.9-1.1-2.9-2.1c-1-0.9-1.8-2.1-2.5-3.5s-1.2-3.1-1.4-5c-0.3-1.9-0.2-4,0.3-6.3
		c0.4-2.3,1-4.7,1.6-7.2c0.6-2.5,1.2-4.9,1.8-7l2-7.4c0.8,0.1,1.5,0.2,2.1,0.3c0.5,0.1,1,0.3,1.5,0.4c0.5,0.1,0.9,0.4,1.1,0.7
		c0.6,1.1,0.9,2.8,0.7,4.8c-0.2,2.1-0.5,4.4-1.1,6.9c-0.5,2.5-1.2,5.2-2,7.9c-0.8,2.7-1.5,5.4-2.1,7.9c-0.5,1.9-0.6,3.4-0.2,4.5
		c0.4,1.1,0.9,1.9,1.6,2.4c0.7,0.5,1.4,0.8,2.1,0.9c0.7,0.1,1.1,0.1,1.2,0c1.2-0.4,2.1-1.1,2.8-2.1c0.3-0.5,0.7-1,1.1-1.6
		c0.4-0.5,0.7-1.1,1.1-1.7c0.1-0.3,0.4-0.9,0.9-2.1c0.5-1.1,1-2.3,1.6-3.6c0.6-1.3,1.1-2.5,1.7-3.7c0.5-1.2,1-2.1,1.3-2.6
		c0.2-1.8,0.5-3.7,0.8-5.7c0.4-2,0.7-3.9,1.1-5.7c0.4-1.8,0.9-3.2,1.4-4.4c0.5-1.2,1-1.9,1.4-2.2c0.4-0.2,1.2-0.5,2.2-1.1
		c1.1-0.5,1.8-0.9,2.2-1.1c0.8-0.2,1.1,0.1,1,0.8c-0.1,0.5-0.1,1.1-0.1,1.6s-0.1,1.1-0.2,1.6c-0.3,1-0.5,1.9-0.7,2.9
		c-0.2,1-0.5,1.9-0.7,2.8c-0.1,0.4-0.2,1.2-0.3,2.3c-0.1,1.1-0.2,2.3-0.3,3.7c-0.1,1.4-0.2,2.8-0.3,4.4s-0.2,3-0.3,4.3
		c-0.1,1.3-0.2,2.4-0.2,3.3c-0.1,0.9-0.1,1.5-0.2,1.7c-0.1,0.2-0.3,0.9-0.5,2.1c-0.2,1.2-0.4,2.5-0.7,3.7v0.2
		c1.5-1.6,2.9-3.6,4.3-6.1C266.5,52.2,267.5,49.3,268.2,46.2z M234.9,87.2c2.7-0.4,5-1.1,6.8-2.3c1.9-1.1,3.5-2.5,4.8-4.2
		c1.3-1.6,2.3-3.4,3.1-5.3c0.8-1.9,1.4-3.9,1.8-5.8c-1.3,0.8-2.6,1.5-3.9,2.2c-1.3,0.7-2.7,1.5-4,2.4c-1.3,0.9-2.7,1.9-4.1,3.1
		c-1.4,1.2-2.7,2.6-4.1,4.3c-0.6,0.7-1.1,1.4-1.6,2c-0.5,0.6-0.8,1.4-0.9,2.2c0,0.4,0.1,0.7,0.2,0.9c0.2,0.3,0.4,0.5,0.8,0.5
		C234.1,87.2,234.5,87.2,234.9,87.2z"/>
</g>
</svg>
